<?xml version="1.0" encoding="utf-8"?>
<!-- Generator: Adobe Illustrator 18.1.1, SVG Export Plug-In . SVG Version: 6.00 Build 0)  -->
<!DOCTYPE svg PUBLIC "-//W3C//DTD SVG 1.0//EN" "http://www.w3.org/TR/2001/REC-SVG-20010904/DTD/svg10.dtd">
<svg version="1.0" id="Layer_1" xmlns="http://www.w3.org/2000/svg" xmlns:xlink="http://www.w3.org/1999/xlink" x="0px" y="0px"
	 viewBox="0 0 841.9 841.9" enable-background="new 0 0 841.9 841.9" xml:space="preserve">
<rect x="0" y="0" width="841.9" height="841.9"/>
<g>
	<rect x="145.9" y="394.9" fill="#FFFFFF" width="550" height="130"/>
	<g>
		<path d="M214.1,476c-4.9,6.9-11.6,7.6-14.7,7.6c-2.5,0-6.8-0.5-11.2-4.6v16.9h-9.9v-54.8h9.9v3.7c1.7-1.7,5-5,11.3-5
			c2.6,0,8.5,0.5,13.2,6c2.1,2.6,5.5,7.9,5.5,16.2C218.2,464.3,218.1,470.5,214.1,476z M207.3,456.3c-1.4-4-5-6.9-9.4-6.9
			c-2.6,0-4.3,1-5.1,1.5c-2.1,1.5-4.6,4.5-4.8,10.7c0,1.7,0.2,3.3,0.6,4.9c1.2,4.6,4.6,7.9,9.6,7.9c1.7,0,3.6-0.5,5.1-1.5
			c2.4-1.6,4.8-4.9,4.8-11.2C208.1,460.8,208.1,458.5,207.3,456.3z"/>
		<path d="M250.4,482.4l-0.1-4.2c-2.1,1.9-6.1,5.2-13.3,5.2c-6.9,0-10.2-3-11.9-5.5c-2.6-3.9-2.4-8.6-2.4-13.1v-23.8h10v22.3
			c0,3.4-0.2,7.4,3.3,9.4c1.3,0.8,3.2,1.2,4.8,1.2c4.8,0,7.2-3.1,8-4.6c1.7-3.1,1.6-7.6,1.6-10.8v-17.5h9.9v41.3H250.4z"/>
		<path d="M297.1,481.2c-3.6,2.1-7,2.4-8.6,2.4c-2.1,0-5.6-0.4-9.5-3.7c-0.7-0.6-1.2-1.2-1.8-1.8v4.3h-9.8V424h9.8l0.1,20.5
			c0.4-0.4,0.9-0.8,1.3-1.2c4.1-3.1,8.7-3.6,10.5-3.6c2.5,0,7.5,0.7,12,5.2c2.5,2.6,6.2,7.8,6.2,16.4
			C307.3,469.2,304.2,477.3,297.1,481.2z M294.9,453c-1.8-2.6-4.9-4.2-8.1-4.2c-2.6,0-4.7,0.9-6.4,2.7c-3.3,3.4-3.2,8.1-3.2,9.4
			c0,4.1,0.7,8.6,4.2,11.2c0.8,0.6,2.9,2,5.9,2c1.6,0,5.2-0.5,7.5-4.1c2.1-3.3,2.4-7.9,2.4-8.8C297.2,460.2,297.1,456.2,294.9,453z"
			/>
		<path d="M312.2,482.4V424h10.1v58.3H312.2z"/>
		<path d="M329.2,434.6v-10h9.8v10H329.2z M329.2,482.4v-41.3h9.8v41.3H329.2z"/>
		<path d="M379.9,475.8c-3.7,5-9.8,7.9-16,7.9c-1.5,0-4.9-0.2-8.6-1.9c-11-5-11.8-16.5-11.8-20c0-5,1.4-9.9,4.5-13.9
			c2-2.6,7.2-8,16.4-8c2.6,0,5.3,0.5,7.7,1.5c2.4,1,7.4,3.9,10.1,10.2l-8.8,4.1c-0.7-2.2-1.9-3.6-2.5-4.2c-1.2-1.2-3.1-2.8-6.9-2.8
			c-2.9,0-5.2,1-7.1,3.2c-3.1,3.6-3.1,8.2-3.1,9.6c0,2.1,0.3,3.7,0.6,4.5c1.2,4.8,4.6,8.3,9.8,8.3c7.1,0,9.3-6.3,10-8.1l8.4,4.5
			C381.8,472.5,381,474.2,379.9,475.8z"/>
		<path d="M419.4,457.9c-0.7,2.3-0.7,4.4-0.7,6.8v17.7h-9.6v-41.3h9.6v5.9c0.7-1.2,1.5-2.5,2.5-3.4c3.3-3.2,8.7-3.4,9.8-3.4h0.8
			v10.2C429.8,450.3,421.8,450.3,419.4,457.9z"/>
		<path d="M469.9,477.4c-2.3,2.1-7.9,6.2-16.4,6.2c-2.6,0-9.2-0.3-14.8-5.5c-4.7-4.5-6.4-10.2-6.4-16.6c0-3.5,0.5-6.8,1.8-9.9
			c1.8-4.1,6.9-11.7,18.9-11.7c9.3,0,14.1,4.8,16.3,7.9c1.9,2.9,3.8,7.9,4,16h-30.6c0.2,1.2,0.6,3.8,2.6,6.3c1.4,1.7,3.9,4,9,4
			c5.1,0,8.1-2.4,9.4-3.8c0.3-0.3,0.8-1,1.4-1.9l8.4,4.9C473.1,474,471.9,475.6,469.9,477.4z M461.7,453c-0.9-2-3.1-5.3-8.4-5.3
			c-2.1,0-3.3,0.4-4.1,0.7c-4.6,1.9-5.7,6.5-6,7.9h19.3C462.5,456.4,462.3,454.4,461.7,453z"/>
		<path d="M512.3,475.8c-3.7,5-9.8,7.9-16,7.9c-1.5,0-4.9-0.2-8.6-1.9c-11-5-11.8-16.5-11.8-20c0-5,1.4-9.9,4.5-13.9
			c2-2.6,7.2-8,16.4-8c2.6,0,5.3,0.5,7.7,1.5c2.4,1,7.4,3.9,10.1,10.2l-8.8,4.1c-0.7-2.2-1.9-3.6-2.5-4.2c-1.2-1.2-3.1-2.8-6.9-2.8
			c-2.9,0-5.2,1-7.1,3.2c-3.1,3.6-3.1,8.2-3.1,9.6c0,2.1,0.3,3.7,0.6,4.5c1.2,4.8,4.6,8.3,9.8,8.3c7.1,0,9.3-6.3,10-8.1l8.4,4.5
			C514.3,472.5,513.5,474.2,512.3,475.8z"/>
		<path d="M557,470.8c-1.7,4.2-7,12.8-19.3,12.8c-1.7,0-5.3-0.1-9.3-1.9c-4.3-1.9-12.1-7.7-12.1-20.2c0-4.5,1.2-7.8,1.8-9.3
			c1.7-4.1,7-12.5,19.3-12.5c1.6,0,5.2,0.2,9.1,1.9c4.5,1.9,12.1,7.4,12.2,19.8C558.7,463,558.6,466.9,557,470.8z M537.2,448.7
			c-0.9,0-3.4,0.2-5.6,1.6c-2.1,1.4-5,4.8-5,11c0,2,0.2,3.7,0.8,5.6c0.7,2,3.6,7.6,10.3,7.6c7.5,0,10.9-6.6,10.7-13.1
			C548.2,454.9,544.5,448.7,537.2,448.7z"/>
		<path d="M573.7,457.9c-0.7,2.3-0.7,4.4-0.7,6.8v17.7h-9.6v-41.3h9.6v5.9c0.7-1.2,1.5-2.5,2.5-3.4c3.3-3.2,8.7-3.4,9.8-3.4h0.8
			v10.2C584.1,450.3,576.1,450.3,573.7,457.9z"/>
		<path d="M616.4,482.4v-4c-0.4,0.4-0.7,0.9-1.2,1.3c-1.6,1.5-5,3.9-10.3,3.9c-1.4,0-4.4-0.2-7.7-1.7c-4.5-2.1-10.7-7.4-10.7-19.3
			c0-12.6,6.9-19.2,11.6-21.3c1.3-0.6,3.7-1.4,7.2-1.4c1.4,0,4.4,0.1,7.5,1.8c0.6,0.3,1.1,0.6,2.1,1.3c0.7,0.6,1.3,1.3,1.5,1.5V424
			h9.8v58.3H616.4z M614.5,453.4c-0.5-0.9-1.4-2-2.1-2.6c-1.7-1.3-3.5-1.8-5.5-1.8c-0.8,0-3,0.2-5,1.5c-4.7,3.1-4.9,9.8-4.9,11
			c0,6.1,2.6,13.1,9.8,13.1c2.6,0,4.7-0.8,6.4-2.8c2.6-2.8,3.2-6.2,3.1-9.9C616.3,459.2,615.9,455.9,614.5,453.4z"/>
		<path d="M666.8,475.1c-2,3.8-7.1,8.5-17.2,8.5c-7.8,0-13.3-2.6-15.9-4.2c-1.4-0.9-2.7-2-4-3.2l7.4-6c0.3,0.4,0.8,1.2,1.9,2.1
			c3.6,3.1,8.8,3.2,10,3.2c2.5,0,5.4-0.6,7-2.5c0.7-0.7,1.1-1.6,1.1-2.4c0-0.3-0.1-1-0.7-1.7c-1.1-1.5-2.4-1.6-5.5-2.2
			c-2.7-0.6-5.5-0.9-8.1-1.6c-1.8-0.5-11.4-2.8-11.4-11.7c0-3.1,1.3-5.5,1.9-6.4c2.1-3.2,6.9-7.1,15.9-7.1c3.2,0,11.6,0.5,17.8,7.7
			l-7,6.5c-0.8-1.7-1.9-2.7-2.6-3.3c-2.6-2.2-5.3-3-8.7-3c-0.4,0-3.2,0-5,1.2c-1.5,1-1.8,2.3-1.8,3.1c0.1,1.4,1.1,2.4,1.3,2.6
			c1.1,0.8,3.8,1.5,7.1,2.1c2.2,0.4,4.5,0.7,6.7,1.2c2.2,0.5,4.7,1.2,6.5,2.6c1.5,1.1,4.5,4,4.5,9
			C668.2,471.5,667.7,473.4,666.8,475.1z"/>
	</g>
	<rect x="145.9" y="368.9" fill="#FFFFFF" width="550" height="13"/>
	<rect x="178.2" y="342.9" fill="#FFFFFF" width="50" height="13"/>
	<rect x="499.5" y="342.9" fill="#FFFFFF" width="13" height="13"/>
	<rect x="145.9" y="316.9" fill="#FFFFFF" width="366.7" height="13"/>
</g>
</svg>
